<?xml version="1.0" encoding="UTF-8" standalone="no"?>
<svg
   xmlns:dc="http://purl.org/dc/elements/1.1/"
   xmlns:cc="http://creativecommons.org/ns#"
   xmlns:rdf="http://www.w3.org/1999/02/22-rdf-syntax-ns#"
   xmlns:svg="http://www.w3.org/2000/svg"
   xmlns="http://www.w3.org/2000/svg"
   xmlns:sodipodi="http://sodipodi.sourceforge.net/DTD/sodipodi-0.dtd"
   xmlns:inkscape="http://www.inkscape.org/namespaces/inkscape"
   width="9"
   height="19"
   viewBox="0 0 9 19"
   version="1.1"
   id="svg4"
   sodipodi:docname="facebook-red.svg"
   inkscape:version="0.92.1 r15371">
  <metadata
     id="metadata10">
    <rdf:RDF>
      <cc:Work
         rdf:about="">
        <dc:format>image/svg+xml</dc:format>
        <dc:type
           rdf:resource="http://purl.org/dc/dcmitype/StillImage" />
        <dc:title></dc:title>
      </cc:Work>
    </rdf:RDF>
  </metadata>
  <defs
     id="defs8" />
  <sodipodi:namedview
     pagecolor="#ffffff"
     bordercolor="#666666"
     borderopacity="1"
     objecttolerance="10"
     gridtolerance="10"
     guidetolerance="10"
     inkscape:pageopacity="0"
     inkscape:pageshadow="2"
     inkscape:window-width="1920"
     inkscape:window-height="1027"
     id="namedview6"
     showgrid="false"
     inkscape:zoom="12.421053"
     inkscape:cx="-8.5826271"
     inkscape:cy="9.5"
     inkscape:window-x="1912"
     inkscape:window-y="-8"
     inkscape:window-maximized="1"
     inkscape:current-layer="svg4">
    <inkscape:grid
       type="xygrid"
       id="grid3682" />
  </sodipodi:namedview>
  <path
     fill="#FFF"
     fill-rule="evenodd"
     d="M5.893 6.223V4.59c0-.248.013-.441.04-.579.029-.137.084-.268.166-.392a.69.69 0 0 1 .393-.27c.18-.055.42-.082.724-.082h1.633V0H6.223C4.707 0 3.62.359 2.957 1.075c-.662.717-.993 1.778-.993 3.184v1.964H0V9.49h1.964V19h3.929V9.49h2.625l.352-3.267H5.893z"
     id="path2"
     style="fill:#ff0000" />
  <path
     style="fill:#ff0000"
     id="path3684"
     d="M5.893 6.223V4.59c0-.248.013-.441.04-.579.029-.137.084-.268.166-.392a.69.69 0 0 1 .393-.27c.18-.055.42-.082.724-.082h1.633V0H6.223C4.707 0 3.62.359 2.957 1.075c-.662.717-.993 1.778-.993 3.184v1.964H0V9.49h1.964V19h3.929V9.49h2.625l.352-3.267H5.893z"
     fill-rule="evenodd"
     fill="#FFF" />
  <path
     fill="#FFF"
     fill-rule="evenodd"
     d="M5.893 6.223V4.59c0-.248.013-.441.04-.579.029-.137.084-.268.166-.392a.69.69 0 0 1 .393-.27c.18-.055.42-.082.724-.082h1.633V0H6.223C4.707 0 3.62.359 2.957 1.075c-.662.717-.993 1.778-.993 3.184v1.964H0V9.49h1.964V19h3.929V9.49h2.625l.352-3.267H5.893z"
     id="path3686"
     style="fill:#ff0000" />
  <path
     style="fill:#f73d30;fill-opacity:1"
     id="path3688"
     d="M5.893 6.223V4.59c0-.248.013-.441.04-.579.029-.137.084-.268.166-.392a.69.69 0 0 1 .393-.27c.18-.055.42-.082.724-.082h1.633V0H6.223C4.707 0 3.62.359 2.957 1.075c-.662.717-.993 1.778-.993 3.184v1.964H0V9.49h1.964V19h3.929V9.49h2.625l.352-3.267H5.893z"
     fill-rule="evenodd"
     fill="#FFF" />
</svg>
